<?xml version="1.0" standalone="no"?>
<!DOCTYPE svg PUBLIC "-//W3C//DTD SVG 20010904//EN"
 "http://www.w3.org/TR/2001/REC-SVG-20010904/DTD/svg10.dtd">
<svg version="1.0" xmlns="http://www.w3.org/2000/svg"
 width="1112.000000pt" height="329.000000pt" viewBox="0 0 1112.000000 329.000000"
 preserveAspectRatio="xMidYMid meet">
<metadata>
Created by potrace 1.16, written by Peter Selinger 2001-2019
</metadata>
<g transform="translate(0.000000,329.000000) scale(0.100000,-0.100000)"
fill="#000000" stroke="none">
<path d="M2227 3155 c-62 -16 -92 -37 -123 -90 -38 -65 -37 -149 3 -213 40
-65 118 -106 186 -98 113 13 190 97 190 205 0 138 -121 230 -256 196z"/>
<path d="M1964 2843 c-101 -85 -254 -262 -349 -405 -21 -32 -42 -58 -48 -58
-5 0 -59 32 -121 71 -282 179 -583 294 -718 273 -168 -26 -208 -160 -117 -394
26 -69 109 -227 153 -292 18 -27 18 -27 -6 -32 -72 -14 -237 -56 -263 -65
l-29 -12 29 -24 c19 -16 37 -23 50 -19 106 28 207 52 240 57 l40 6 65 -87 c36
-48 108 -136 161 -197 97 -111 97 -111 84 -142 -8 -18 -32 -86 -56 -152 -26
-75 -47 -121 -55 -121 -8 0 -75 20 -150 45 -146 48 -314 123 -388 174 -37 26
-49 29 -70 21 -14 -5 -26 -11 -26 -14 0 -10 132 -85 225 -128 98 -46 359 -138
390 -138 20 0 20 -3 -15 -128 -86 -314 -106 -615 -50 -764 15 -40 34 -69 62
-93 36 -30 48 -35 95 -35 29 0 75 8 101 18 155 59 375 285 569 585 100 154 81
146 182 78 224 -151 458 -265 611 -300 40 -9 42 -8 36 12 -3 12 -6 29 -6 38 0
12 -23 22 -83 38 -137 36 -375 159 -554 287 l-63 45 15 28 14 29 328 5 c180 3
364 11 407 17 95 15 91 18 137 -112 28 -77 35 -88 55 -88 13 0 24 2 24 5 0 11
-49 134 -69 173 l-21 42 27 6 c163 35 304 92 373 152 209 179 -44 428 -610
602 -69 22 -156 47 -195 58 -50 13 -69 22 -66 33 93 370 108 446 118 615 3 61
3 127 -1 147 -7 37 -7 37 -35 22 l-29 -14 0 -123 c0 -171 -29 -336 -98 -566
-23 -76 -27 -83 -47 -79 -12 3 -53 11 -92 18 -61 10 -75 17 -120 58 -81 76
-234 203 -317 264 -43 31 -78 61 -78 66 0 15 86 139 167 238 77 95 195 211
245 241 32 19 33 21 15 46 -12 17 -17 15 -73 -31z m-793 -387 c71 -22 197 -76
277 -119 l72 -39 -30 -52 c-17 -28 -49 -86 -73 -128 l-42 -78 -140 0 c-77 0
-176 -3 -221 -6 l-80 -7 -21 49 c-41 95 -55 150 -60 219 -6 88 14 130 78 163
39 21 53 23 119 18 41 -3 96 -12 121 -20z m493 -251 c125 -84 258 -187 264
-205 3 -9 -1 -11 -11 -7 -9 3 -94 13 -189 22 -95 9 -201 19 -236 23 l-62 7 62
113 c34 61 65 112 68 112 3 0 50 -29 104 -65z m-336 -244 c-26 -67 -135 -291
-141 -291 -18 0 -207 265 -207 290 0 6 61 10 176 10 97 0 174 -4 172 -9z m362
-21 c85 -11 211 -30 279 -44 122 -24 126 -26 169 -69 l45 -45 -48 -114 c-55
-132 -178 -380 -233 -470 l-39 -63 -72 -3 c-67 -3 -76 -1 -109 25 -49 37 -354
335 -404 395 -38 46 -39 49 -28 85 14 44 81 203 117 280 l25 53 72 -6 c39 -3
141 -14 226 -24z m702 -156 c137 -47 289 -121 365 -179 141 -105 170 -208 83
-295 -39 -39 -107 -80 -132 -80 -7 0 -35 35 -63 77 -62 95 -147 202 -282 355
-82 92 -103 122 -98 138 3 11 10 20 15 20 4 0 55 -16 112 -36z m-62 -151 c151
-162 339 -408 322 -425 -13 -13 -157 -47 -270 -62 -128 -18 -412 -32 -412 -21
0 4 33 76 74 159 40 83 99 215 131 294 32 78 61 142 65 142 5 0 45 -39 90 -87z
m-845 -405 c22 -20 51 -45 65 -57 21 -17 22 -20 7 -21 -43 0 -424 65 -435 75
-4 3 50 193 67 239 l11 28 122 -113 c68 -63 141 -130 163 -151z m-193 -88 c79
-16 194 -36 256 -44 106 -15 116 -19 167 -57 30 -23 55 -44 55 -48 -1 -14
-134 -183 -199 -253 -144 -154 -251 -215 -365 -210 -44 3 -99 66 -119 139 -22
76 -22 254 -2 383 21 126 23 132 45 125 10 -3 83 -19 162 -35z"/>
<path d="M7310 1990 l0 -270 60 0 60 0 0 105 0 105 85 0 85 0 0 -105 0 -105
55 0 55 0 0 38 c1 32 0 456 0 490 0 9 -15 12 -52 10 l-53 -3 -3 -102 -3 -103
-87 0 -87 0 0 103 0 102 -57 3 -58 3 0 -271z"/>
<path d="M7867 2246 c-104 -38 -112 -72 -107 -483 l0 -43 55 0 55 0 0 198 c0
141 3 201 12 210 7 7 40 12 80 12 56 0 69 -3 78 -19 6 -12 10 -98 10 -210 l0
-191 55 0 55 0 0 193 c0 105 -5 208 -10 227 -12 43 -62 93 -109 109 -45 15
-127 13 -174 -3z"/>
<path d="M9860 1990 l0 -270 55 0 55 0 0 270 0 270 -55 0 -55 0 0 -270z"/>
<path d="M3517 2243 c-11 -11 -8 -355 4 -398 14 -53 61 -100 115 -115 37 -11
51 -10 94 4 46 15 54 15 101 0 58 -19 105 -10 154 28 49 38 55 69 55 288 l0
200 -55 0 -55 0 0 -193 c0 -208 -2 -217 -52 -217 -21 0 -31 6 -38 25 -5 14 -9
29 -9 33 1 4 1 40 0 80 l-1 73 -52 -3 -53 -3 -3 -89 c-3 -95 -11 -116 -46
-116 -43 0 -46 14 -46 217 l0 193 -53 0 c-30 0 -57 -3 -60 -7z"/>
<path d="M4185 2231 c-81 -37 -104 -90 -105 -241 0 -126 12 -174 53 -218 42
-43 79 -52 230 -52 l127 0 0 60 0 60 -133 0 c-147 0 -157 4 -157 57 l0 33 145
0 146 0 -3 58 -3 57 -142 3 -143 3 0 33 c0 22 6 36 16 40 9 3 74 6 145 6 l130
0 -3 58 -3 57 -130 2 c-109 2 -136 0 -170 -16z"/>
<path d="M4530 1986 l0 -266 55 0 55 0 0 105 0 105 78 0 c47 0 83 -5 90 -12 8
-8 12 -46 12 -105 l0 -93 55 0 55 0 0 103 c0 72 -5 111 -15 131 -14 26 -14 33
1 72 30 79 1 163 -69 201 -25 14 -64 18 -174 21 l-143 4 0 -266z"/>
<path d="M5087 2236 c-85 -32 -109 -76 -115 -216 -10 -228 42 -300 213 -300
102 1 175 50 191 129 l7 31 -61 0 c-51 0 -60 -3 -65 -20 -4 -18 -14 -20 -74
-20 -40 0 -74 5 -81 12 -17 17 -17 249 0 266 7 7 41 12 81 12 60 0 70 -2 74
-20 5 -17 14 -20 64 -20 39 0 59 4 59 12 0 30 -44 99 -77 119 -45 28 -160 36
-216 15z"/>
<path d="M5539 2241 c-46 -15 -80 -43 -100 -84 -18 -35 -20 -55 -17 -186 3
-143 4 -149 30 -183 40 -52 99 -72 192 -66 62 4 81 10 111 32 59 45 65 67 65
234 0 138 -2 152 -23 182 -34 52 -78 73 -161 76 -39 2 -83 0 -97 -5z m159
-123 c8 -8 12 -52 12 -133 0 -81 -4 -125 -12 -133 -7 -7 -40 -12 -80 -12 -85
0 -88 5 -88 145 0 140 3 145 88 145 40 0 73 -5 80 -12z"/>
<path d="M6020 2190 l0 -60 60 0 60 0 0 -205 0 -205 60 0 60 0 0 205 0 205 60
0 60 0 0 60 0 60 -180 0 -180 0 0 -60z"/>
<path d="M6525 2231 c-55 -25 -92 -71 -100 -126 -4 -24 -6 -95 -4 -157 5 -134
22 -173 93 -207 36 -18 61 -21 179 -21 l137 0 0 60 0 60 -133 0 c-147 0 -157
4 -157 57 l0 33 145 0 146 0 -3 58 -3 57 -142 3 -143 3 0 27 c0 48 13 52 157
52 l134 0 -3 58 -3 57 -130 2 c-109 2 -137 0 -170 -16z"/>
<path d="M6977 2236 c-91 -34 -107 -72 -107 -259 0 -133 2 -147 23 -178 73
-110 292 -106 354 6 37 65 32 75 -32 75 -44 0 -56 -4 -65 -20 -9 -17 -21 -20
-78 -20 -40 0 -73 5 -80 12 -8 8 -12 52 -12 133 0 81 4 125 12 133 7 7 40 12
80 12 57 0 69 -3 78 -20 9 -16 21 -20 65 -20 44 0 55 3 55 16 0 30 -44 95 -78
116 -44 27 -160 35 -215 14z"/>
<path d="M8314 2240 c-18 -6 -48 -28 -67 -49 -43 -48 -51 -87 -45 -243 4 -127
15 -157 76 -198 31 -22 46 -25 128 -25 88 0 94 1 131 31 59 48 63 62 63 230 0
140 -2 153 -23 184 -34 52 -78 73 -161 76 -39 2 -85 -1 -102 -6z m164 -122 c8
-8 12 -54 12 -139 0 -146 4 -139 -95 -139 -82 0 -85 6 -85 145 0 140 3 145 88
145 40 0 73 -5 80 -12z"/>
<path d="M8650 2041 c0 -199 1 -209 23 -242 33 -51 97 -79 179 -79 l68 0 0 60
0 60 -68 0 c-40 0 -73 5 -80 12 -9 9 -12 68 -12 205 l0 193 -55 0 -55 0 0
-209z"/>
<path d="M9077 2236 c-92 -33 -107 -68 -107 -251 0 -155 6 -180 52 -221 57
-52 205 -59 273 -13 60 40 75 87 75 225 0 65 -5 135 -10 154 -12 43 -62 93
-109 109 -45 15 -127 13 -174 -3z m173 -125 c5 -11 10 -68 10 -126 0 -140 -3
-145 -88 -145 -40 0 -73 5 -80 12 -8 8 -12 52 -12 133 0 81 4 125 12 133 7 7
40 12 80 12 56 0 69 -3 78 -19z"/>
<path d="M9515 2231 c-81 -37 -104 -90 -104 -241 0 -58 4 -122 8 -144 12 -48
64 -103 111 -116 51 -14 145 -12 183 4 65 28 109 104 101 176 -1 14 -3 49 -3
78 l-1 52 -75 0 -75 0 0 -56 c0 -47 3 -57 20 -61 14 -4 20 -14 20 -33 0 -42
-20 -51 -97 -48 l-68 3 -3 134 c-2 101 1 136 10 143 7 4 41 8 75 8 52 0 65 -3
75 -20 10 -16 24 -20 70 -20 l56 0 -10 38 c-13 47 -42 80 -93 103 -53 24 -147
25 -200 0z"/>
<path d="M10125 2238 c-40 -14 -84 -56 -101 -95 -10 -22 -14 -74 -14 -161 0
-115 2 -133 23 -172 16 -30 37 -51 67 -67 39 -21 57 -23 176 -23 l132 0 3 43
c7 80 13 76 -138 79 l-136 3 -10 28 c-18 54 -11 57 143 57 l140 0 0 60 0 60
-145 0 c-157 0 -156 0 -135 54 l10 26 134 0 134 0 4 50 c1 28 2 55 0 60 -5 13
-248 12 -287 -2z"/>
<path d="M10567 2236 c-128 -46 -146 -197 -35 -279 21 -16 48 -22 114 -25 79
-4 86 -6 95 -29 12 -31 12 -29 -7 -47 -12 -13 -40 -16 -144 -16 -71 0 -131 -4
-134 -9 -3 -4 -3 -31 1 -60 l6 -51 131 0 c151 0 201 16 236 72 46 75 35 153
-29 211 -40 36 -67 44 -170 50 -51 2 -73 25 -55 55 9 14 29 18 108 20 l97 3
-3 57 -3 57 -85 2 c-53 2 -100 -3 -123 -11z"/>
<path d="M284 1928 c-55 -12 -118 -67 -139 -123 -25 -65 -17 -144 21 -197 87
-124 277 -114 351 17 25 44 31 133 12 182 -33 89 -144 144 -245 121z"/>
<path d="M5320 1289 l0 -131 75 4 c106 5 120 21 120 129 0 76 -2 82 -28 105
-24 20 -39 24 -98 24 l-69 0 0 -131z"/>
<path d="M5584 1408 c-31 -14 -44 -50 -44 -118 0 -106 30 -134 136 -128 56 3
59 4 62 30 3 27 3 27 -70 30 -60 2 -73 6 -76 21 -3 15 6 17 72 17 l76 0 0 30
0 30 -76 0 c-66 0 -75 2 -72 18 3 14 17 18 73 22 67 5 70 6 73 33 l3 27 -68
-1 c-37 0 -78 -5 -89 -11z"/>
<path d="M5803 1410 c-43 -18 -57 -81 -25 -119 11 -15 34 -24 67 -29 34 -5 50
-12 50 -22 0 -12 -16 -16 -67 -18 l-68 -3 0 -31 0 -30 76 4 c66 3 78 7 95 28
24 32 24 71 1 100 -13 16 -32 24 -70 28 -42 4 -52 8 -52 23 0 16 8 19 50 19
49 0 50 1 50 30 0 29 -2 30 -42 29 -24 0 -53 -4 -65 -9z"/>
<path d="M5972 1293 l3 -128 28 -3 27 -3 0 130 0 131 -30 0 -31 0 3 -127z"/>
<path d="M6095 1409 c-38 -22 -45 -41 -45 -121 0 -64 3 -81 20 -98 25 -25 61
-34 105 -26 46 9 65 39 65 103 l0 53 -35 0 c-32 0 -35 -2 -35 -30 0 -16 5 -30
10 -30 6 0 10 -9 10 -21 0 -18 -5 -20 -42 -17 l-43 3 0 65 0 65 43 3 c25 2 42
-1 42 -7 0 -6 11 -11 25 -11 31 0 34 29 5 55 -23 21 -98 30 -125 14z"/>
<path d="M6295 1395 c-23 -23 -25 -31 -25 -130 l0 -105 25 0 25 0 0 101 0 100
43 -3 42 -3 3 -97 c3 -97 3 -98 27 -98 25 0 25 1 25 95 0 52 -5 105 -11 118
-23 51 -113 64 -154 22z"/>
<path d="M6480 1289 l0 -130 28 3 27 3 3 128 3 127 -31 0 -30 0 0 -131z"/>
<path d="M6601 1406 c-35 -19 -39 -37 -40 -148 -1 -98 -1 -98 24 -98 24 0 24
1 27 98 l3 97 43 3 42 3 0 -100 0 -101 25 0 25 0 0 104 c0 85 -3 108 -18 126
-22 28 -96 37 -131 16z"/>
<path d="M6823 1410 c-12 -5 -26 -18 -32 -29 -15 -27 -13 -162 2 -182 30 -39
87 -50 136 -24 35 17 41 32 41 96 l0 49 -35 0 c-32 0 -35 -2 -35 -30 0 -16 5
-30 10 -30 6 0 10 -9 10 -20 0 -17 -7 -20 -45 -20 l-45 0 0 70 0 70 45 0 c25
0 45 -4 45 -10 0 -5 11 -10 25 -10 30 0 32 19 7 50 -20 25 -92 36 -129 20z"/>
<path d="M7070 1390 c0 -27 3 -30 30 -30 l30 0 0 -100 0 -100 25 0 25 0 0 100
0 100 29 0 c19 0 30 6 33 18 10 37 -1 42 -88 42 l-84 0 0 -30z"/>
<path d="M7270 1290 l0 -130 25 0 c23 0 25 3 25 50 l0 50 45 0 45 0 0 -50 c0
-47 2 -50 25 -50 l25 0 0 130 0 130 -25 0 c-23 0 -25 -3 -25 -50 l0 -50 -45 0
-45 0 0 50 c0 47 -2 50 -25 50 l-25 0 0 -130z"/>
<path d="M7515 1397 c-25 -21 -27 -28 -27 -106 0 -111 12 -124 117 -129 l75
-4 0 30 0 31 -72 3 c-60 2 -73 6 -76 21 -3 15 6 17 72 17 l76 0 0 30 0 30 -76
0 c-66 0 -75 2 -72 18 3 14 16 18 76 20 l72 3 0 29 0 30 -69 0 c-58 0 -74 -4
-96 -23z"/>
<path d="M7823 1410 c-35 -14 -43 -42 -43 -150 0 -99 0 -101 23 -98 19 3 22
10 25 51 l3 47 70 0 69 0 0 30 0 30 -70 0 c-63 0 -70 2 -70 20 0 18 7 20 70
20 l70 0 0 30 0 30 -62 -1 c-35 0 -73 -4 -85 -9z"/>
<path d="M7992 1314 c3 -102 5 -107 31 -130 39 -33 99 -33 132 1 23 23 25 31
25 130 0 98 -1 105 -20 105 -18 0 -20 -8 -22 -97 l-3 -98 -45 0 -45 0 -2 85
c-1 47 -2 91 -2 98 -1 6 -12 12 -26 12 l-26 0 3 -106z"/>
<path d="M8210 1390 c0 -28 3 -30 35 -30 l35 0 0 -100 c0 -93 1 -100 20 -100
19 0 20 7 20 100 l0 100 29 0 c19 0 30 6 33 18 10 37 -1 42 -88 42 l-84 0 0
-30z"/>
<path d="M8410 1318 c1 -107 6 -125 47 -146 39 -21 82 -14 114 17 28 29 29 32
29 130 l0 101 -25 0 -25 0 0 -100 0 -100 -45 0 -45 0 0 100 0 100 -25 0 -25 0
0 -102z"/>
<path d="M8630 1290 c0 -123 1 -130 20 -130 17 0 20 7 20 51 l0 50 48 -3 47
-3 3 -48 c3 -43 5 -48 25 -45 20 3 22 8 20 53 -2 55 -3 97 -2 135 1 15 -10 34
-26 47 -21 19 -38 23 -91 23 l-64 0 0 -130z"/>
<path d="M8882 1408 c-29 -14 -45 -76 -40 -147 7 -77 36 -101 124 -101 l64 0
0 30 c0 29 0 29 -67 32 -55 2 -68 6 -71 21 -3 15 5 17 67 17 l71 0 0 30 0 30
-71 0 c-62 0 -70 2 -67 18 3 14 16 18 71 20 43 2 67 7 68 15 0 7 2 20 4 30 3
15 -5 17 -63 16 -37 0 -77 -5 -90 -11z"/>
<path d="M2787 820 c-107 -32 -169 -175 -123 -284 47 -112 194 -155 297 -86
199 131 54 438 -174 370z"/>
</g>
</svg>
