<?xml version="1.0" standalone="no"?>
<!DOCTYPE svg PUBLIC "-//W3C//DTD SVG 20010904//EN"
 "http://www.w3.org/TR/2001/REC-SVG-20010904/DTD/svg10.dtd">
<svg version="1.0" xmlns="http://www.w3.org/2000/svg"
 width="337.000000pt" height="324.000000pt" viewBox="0 0 337.000000 324.000000"
 preserveAspectRatio="xMidYMid meet">
<metadata>
Created by potrace 1.16, written by Peter Selinger 2001-2019
</metadata>
<g transform="translate(0.000000,324.000000) scale(0.100000,-0.100000)"
fill="#000000" stroke="none">
<path d="M2195 3125 c-60 -16 -94 -42 -123 -94 -53 -94 -20 -222 71 -276 58
-33 97 -40 154 -26 97 25 156 101 156 201 0 138 -121 229 -258 195z"/>
<path d="M1934 2813 c-103 -86 -240 -245 -345 -400 l-49 -72 -116 74 c-292
187 -587 300 -726 279 -168 -26 -208 -160 -117 -394 26 -69 109 -227 153 -292
18 -27 18 -27 -6 -32 -74 -15 -237 -56 -263 -66 l-29 -11 29 -24 c19 -16 37
-23 50 -19 106 28 207 52 240 57 l40 6 65 -87 c36 -48 108 -137 161 -198 96
-110 97 -111 84 -142 -8 -17 -32 -85 -56 -151 -26 -75 -47 -121 -55 -121 -8 0
-75 20 -150 45 -146 48 -314 123 -388 174 -37 26 -49 29 -70 21 -14 -5 -26
-12 -26 -15 0 -9 83 -57 181 -106 99 -49 305 -127 397 -150 28 -7 52 -17 52
-21 0 -5 -13 -57 -30 -116 -86 -314 -106 -615 -50 -764 15 -40 34 -69 62 -93
36 -30 48 -35 95 -35 107 0 219 67 367 217 111 114 177 197 288 363 49 74 94
140 100 147 7 9 31 -2 96 -46 201 -136 459 -264 596 -296 l58 -14 -6 31 c-3
17 -6 34 -6 38 0 4 -30 15 -67 24 -139 35 -356 144 -536 269 l-96 67 15 30 15
30 267 0 c238 0 349 6 504 26 44 6 47 5 62 -24 8 -16 26 -63 40 -103 21 -64
28 -74 50 -77 14 -2 26 -1 26 1 0 13 -41 121 -64 165 l-26 52 27 6 c220 47
384 130 429 215 21 42 20 108 -4 154 -83 162 -383 316 -857 443 -50 13 -69 22
-66 33 93 370 108 446 118 615 3 61 3 127 -1 147 -7 37 -7 37 -35 22 l-29 -14
0 -123 c0 -171 -29 -336 -98 -566 -23 -76 -27 -83 -47 -79 -12 3 -53 11 -92
18 -61 10 -75 17 -120 58 -78 73 -226 196 -315 261 -44 33 -80 64 -80 69 0 14
88 140 167 238 77 95 194 211 245 241 32 19 33 21 15 46 -12 17 -17 15 -73
-31z m-818 -382 c84 -21 192 -65 307 -126 l68 -37 -31 -51 c-17 -29 -49 -87
-73 -129 l-42 -78 -140 0 c-77 0 -176 -3 -221 -6 l-80 -7 -21 49 c-39 92 -55
149 -60 215 -5 54 -2 72 16 108 41 79 126 98 277 62z m518 -256 c125 -84 258
-187 264 -205 3 -9 -1 -11 -11 -7 -14 5 -236 28 -410 43 -43 3 -77 9 -75 13
11 27 124 221 128 221 3 0 50 -29 104 -65z m-336 -243 c-25 -66 -135 -292
-141 -292 -18 0 -207 265 -207 289 0 5 72 10 176 11 100 0 174 -3 172 -8z
m362 -22 c85 -11 211 -30 279 -44 122 -24 125 -26 170 -70 l45 -45 -48 -113
c-61 -140 -183 -386 -234 -470 l-39 -63 -72 -3 c-71 -3 -74 -2 -119 35 -61 49
-342 324 -394 385 -38 46 -39 49 -28 85 14 44 81 203 117 280 l25 53 72 -6
c39 -3 141 -14 226 -24z m702 -156 c137 -47 289 -121 365 -179 141 -105 170
-208 83 -295 -44 -44 -115 -84 -135 -76 -8 3 -37 40 -66 83 -65 97 -142 193
-276 346 -80 91 -103 122 -98 137 4 11 10 20 15 20 4 0 55 -16 112 -36z m-62
-151 c155 -165 339 -408 322 -425 -13 -13 -157 -47 -270 -62 -124 -18 -412
-33 -412 -22 0 4 32 73 71 154 72 150 132 287 169 386 12 31 25 56 30 56 4 0
45 -39 90 -87z m-845 -405 c22 -20 51 -45 65 -57 21 -17 22 -20 7 -21 -59 -1
-437 68 -437 80 0 10 56 199 70 234 l10 28 122 -113 c68 -63 141 -130 163
-151z m-270 -72 c85 -19 273 -52 373 -66 62 -9 81 -16 127 -51 30 -23 55 -44
55 -48 0 -13 -132 -182 -199 -253 -238 -254 -425 -281 -485 -69 -21 74 -21
254 -1 381 20 123 23 132 43 126 9 -3 49 -12 87 -20z"/>
<path d="M254 1898 c-95 -20 -161 -118 -152 -223 16 -193 265 -254 376 -91 27
41 32 57 32 106 0 70 -12 105 -48 143 -58 61 -128 83 -208 65z"/>
<path d="M2757 790 c-152 -46 -188 -266 -60 -363 94 -71 225 -49 292 49 110
160 -46 370 -232 314z"/>
</g>
</svg>
